<?xml version="1.0" encoding="UTF-8"?>
<svg id="Layer_1" xmlns="http://www.w3.org/2000/svg" version="1.1" viewBox="0 0 110 135">
  <!-- Generator: Adobe Illustrator 29.6.0, SVG Export Plug-In . SVG Version: 2.1.1 Build 207)  -->
  <path d="M101.9,55.3c0-3.9-2.4-7.3-5.9-8.7.8-1.7,1.2-3.5,1.2-5.4,0-6.9-5.6-12.5-12.5-12.5,0-5.2-4.2-9.4-9.4-9.4s-2.8.3-4.1,1c-1.3-2.5-3.9-4.1-6.9-4.1s-1.4.1-2.2.3c-1.8-2.2-4.4-3.4-7.2-3.4s-5.8,1.5-7.6,3.9c-1-.5-2.2-.8-3.4-.8-3.8,0-6.9,2.7-7.7,6.2-6.1,0-11.1,4.9-11.1,10.9s.2,2.2.5,3.2c-3.8.5-6.7,3.8-6.7,7.7s0,.4,0,.5c-3.7,1.3-6.3,4.8-6.3,8.8s0,.8,0,1.2c-2.9,1.6-4.8,4.7-4.8,8.2,0,5.2,4.2,9.4,9.4,9.4s1.9-.2,2.8-.5c1.4,2.2,3.8,3.6,6.5,3.6s2.2-.2,3.2-.7c.4,5.6,5.2,10.1,10.9,10.1h6.2v12.5c0,3.5-2.8,6.2-6.2,6.2s-1.6.7-1.6,1.6.7,1.6,1.6,1.6c5.2,0,9.4-4.2,9.4-9.4v-29.1c1.5.6,3.1,1,4.7,1s3.2-.3,4.7-.9v29c0,5.2,4.2,9.4,9.4,9.4s1.6-.7,1.6-1.6-.7-1.6-1.6-1.6c-3.5,0-6.2-2.8-6.2-6.2v-15.6h1.6c4.7,0,8.7-2.9,10.2-7.1,1.2.5,2.5.9,3.8.9,3,0,5.8-1.5,7.6-3.9,1,.5,2.2.8,3.4.8,4.3,0,7.8-3.5,7.8-7.8s0-.8-.1-1.2c2.9-1.6,4.8-4.8,4.8-8.2h0ZM40.9,81.9c-4.3,0-7.8-3.5-7.8-7.8v-1.6c.2-.2.4-.5.5-.8.8.3,1.7.6,2.6.7v1.7c0,2.6,2.1,4.7,4.7,4.7h6.2v3.1h-6.3ZM47.2,67.1v8.5h-6.2c-.9,0-1.6-.7-1.6-1.6v-1.7c3.3-.5,6.1-2.4,7.8-5.2ZM63.8,65.7c.6.6,1.4,1,2.2,1.4v3.8c0,.9-.7,1.6-1.6,1.6h-1.6v-5.9c.3-.3.7-.6,1-.9h0ZM64.4,78.7h-1.6v-3.1h1.6c2.6,0,4.7-2.1,4.7-4.7v-3.1h.1c.3,2,1.3,3.8,2.7,5.1-.9,3.4-3.9,5.8-7.5,5.8h0ZM94.7,61.1c-.8.3-1.2,1.2-.9,2,.2.5.3,1.1.3,1.6,0,2.6-2.1,4.7-4.7,4.7s-2-.4-2.9-1c-.4-.3-.9-.4-1.3-.3s-.9.4-1.1.9c-1,2.2-3.2,3.6-5.6,3.6-3.5,0-6.2-2.8-6.2-6.1s0-.2,0-.3c0-.5-.2-1-.6-1.3-.3-.2-.6-.3-1-.3s-.3,0-.4,0c-.5.1-.8.2-1.2.2-1.6,0-3.1-.8-3.9-2.2-.3-.4-.8-.7-1.3-.7s-1,.2-1.3.6c-1.8,2.4-4.5,3.8-7.5,3.8s-5.2-1.2-7-3.2c-.4-.4-1-.6-1.5-.5-.6.1-1,.5-1.2,1.1-1,3.3-4,5.7-7.5,5.7s-2.9-.4-4.1-1.2c-.4-.3-.9-.3-1.4-.1-.5.2-.8.6-.9,1-.6,2-2.4,3.4-4.5,3.4s-3.7-1.2-4.4-3c-.2-.4-.5-.8-.9-.9s-.9-.1-1.3,0c-.9.5-1.9.7-2.8.7-3.5,0-6.2-2.8-6.2-6.2s1.6-4.9,4-5.8c.8-.3,1.2-1.1.9-1.9-.2-.6-.3-1.2-.3-1.7,0-3,2.2-5.6,5.2-6.1.4,0,.8-.3,1.1-.7s.3-.8.2-1.3c-.1-.5-.2-.9-.2-1.3,0-2.6,2.1-4.7,4.7-4.7s.7,0,1,.1c.6.1,1.2-.1,1.6-.6.4-.5.4-1.2,0-1.7-.8-1.2-1.1-2.6-1.1-4,0-4.3,3.5-7.8,7.8-7.8s.8,0,1.3.1c.5,0,.9,0,1.3-.4.4-.3.5-.8.5-1.2v-.2c0-2.5,2.1-4.6,4.7-4.6s2,.4,2.9,1c.4.3.9.4,1.3.3s.9-.4,1.1-.9c1-2.2,3.2-3.6,5.6-3.6s4.2,1.1,5.3,3c.4.7,1.3.9,2,.6,2.8-1.4,6,.3,6.6,3.2.1.5.5,1,1,1.1.5.2,1.1,0,1.5-.2,1.1-.9,2.5-1.4,3.9-1.4,3.5,0,6.2,2.8,6.2,6.2s0,.9-.2,1.4c-.1.5,0,1,.4,1.4s.9.5,1.4.5c.6,0,1-.1,1.5-.1,5.2,0,9.4,4.2,9.4,9.4s-.6,3.8-1.8,5.5c-.3.4-.4,1-.2,1.5s.7.9,1.2.9c3.1.4,5.4,3.1,5.4,6.2s-1.6,4.9-4.1,5.8h0Z"/>
  <path d="M84.7,50.6c-.9,0-1.6.7-1.6,1.6,0,1.7-1.4,3.1-3.1,3.1s-3.1-1.4-3.1-3.1-.7-1.6-1.6-1.6-1.6.7-1.6,1.6-.7,1.6-1.6,1.6-1.6-.7-1.6-1.6-.7-1.6-1.6-1.6-1.6.7-1.6,1.6c0,2.6,2.1,4.7,4.7,4.7s2-.3,2.8-.9c1.1,1.5,3,2.5,5,2.5,3.5,0,6.2-2.8,6.2-6.2s-.7-1.6-1.6-1.6Z"/>
  <path d="M42.5,52.2c-.9,0-1.6.7-1.6,1.6s-.7,1.6-1.6,1.6-1.6-.7-1.6-1.6-.7-1.6-1.6-1.6-1.6.7-1.6,1.6c0,1.7-1.4,3.1-3.1,3.1s-3.1-1.4-3.1-3.1-.7-1.6-1.6-1.6-1.6.7-1.6,1.6c0,3.5,2.8,6.2,6.2,6.2s3.9-1,5-2.5c.8.6,1.8.9,2.8.9,2.6,0,4.7-2.1,4.7-4.7s-.7-1.6-1.6-1.6Z"/>
  <path d="M61.2,31.9c-.9,0-1.6.7-1.6,1.6s-.7,1.6-1.6,1.6-1.6-.7-1.6-1.6-.7-1.6-1.6-1.6-1.6.7-1.6,1.6c0,1.7-1.4,3.1-3.1,3.1s-3.1-1.4-3.1-3.1-.7-1.6-1.6-1.6-1.6.7-1.6,1.6c0,3.5,2.8,6.2,6.2,6.2s3.9-1,5-2.5c.8.6,1.8.9,2.8.9,2.6,0,4.7-2.1,4.7-4.7s-.7-1.6-1.6-1.6Z"/>
</svg>