<?xml version="1.0" encoding="UTF-8"?>
<svg id="Layer_1" xmlns="http://www.w3.org/2000/svg" version="1.1" viewBox="0 0 800 1000">
  <!-- Generator: Adobe Illustrator 29.6.0, SVG Export Plug-In . SVG Version: 2.1.1 Build 207)  -->
  <path d="M603.5,445.7c-2.1-9.9-6.1-19.9-12.6-31.5-8.2-14.7-18.2-28.3-29.8-40.5,11.1-7.3,20.3-18.6,25.8-32.4,7.5-18.8,7.5-38.9,6.9-52.4-1.6-33.5-10.3-60.2-25.7-79.5-9.4-11.7-22.3-20.9-36.3-26-9.2-3.3-18.4-4.7-27.3-4.2,5.1-24.7,2.1-50.7-8.6-73.7h0c-12.1-25.8-39.8-54.5-72.1-56.6-14.7-1-35.8,3.4-52.8,29.9-13.8,21.4-12.3,45.9-11.1,67.5.1.9.1,1.8.2,2.6-16.1,2.8-30.6,7.4-46.9,21.2-15.4,13-27.4,33.2-33.7,57-4.7,17.8-5.9,36.5-3.5,53.1-22.8.4-51.4,2.5-64.9,26.5-14.3,25.4-16.6,53.4-15.9,72.5.2,6.7.9,15.5,3.9,23.9,3.5,9.9,9.9,18,14.4,23.3,15,17.6,31.5,30.2,51.3,39.2l-6.2,44.1c-3.9,28.1-5,59.4,16.6,78.2,12.6,10.9,28.1,13.4,41.8,15.5,4.3.7,8.4,1.3,12.3,2.2,20.7,4.6,41.4,6.8,63.2,6.8s4.2,0,6.2,0c.7,0,1.5,0,2.5,0v140.8h20v-142.9c14-2.5,31.7-7.9,45.2-19.3l11.8-9.9c.3-.2.7-.6,1.1-1,2.4,1.2,6.8,5.4,9.6,8.1,7.3,7,15.6,15,26.2,16.1,25.7,2.6,47.3-20.8,53.4-28,18.9-22.7,32.1-55.9,36-91,1.1-10.8,2.1-25.1-1-39.4ZM584.5,482.8c-3.6,31.4-15.1,60.7-31.5,80.5-8.7,10.4-23.4,22.2-36,20.9-3.8-.4-9.7-6-14.4-10.6-7.8-7.4-15.8-15.1-26.1-13.8-5.3.7-9.1,3.9-11.3,5.7l-11.7,9.9c-7.8,6.5-19.4,11.5-32.4,14.2v-77.9l76.2-84.1-14.8-13.4-61.5,67.9v-146.1l54.7-48.7-13.2-15-41.5,37v-29.3h-20v130.1l-76.9-64.3-12.8,15.3,89.7,75v156c-1,0-2,0-2.9,0-22.4.4-43.6-1.6-64.6-6.3-4.5-1-9.1-1.7-13.6-2.4-12.1-1.9-23.5-3.7-31.7-10.8-14.4-12.5-13.3-36.4-10-60.4l8.3-59.5-7.3-2.9c-20-7.9-36.1-19.5-50.7-36.6-5.6-6.5-8.9-11.8-10.8-17-2.1-5.8-2.5-12.3-2.7-17.9-.5-16.5,1.3-40.7,13.4-62,9-15.9,31.4-16.1,53-16.4,2.4,0,4.7-.1,6.9-.1l12.8-.3-3.4-12.4c-8.5-30.7.9-78.9,28.3-102,14.1-11.8,25.5-15.1,45.9-18.1l8.9-1.3-.3-9c-.1-4-.4-8-.6-11.9-1.2-20.4-2.3-39.6,7.9-55.6,8.9-13.8,19.8-20.8,32.4-20.8s1.5,0,2.3,0c20.1,1.3,43.8,20.8,55.3,45.2,10.9,23.3,12.1,50.6,3.3,74.8l-7.5,20.4,20.4-7.6c21.4-8,45.6,4.1,58.5,20.2,12.8,16,20,38.8,21.4,68,.9,18.5-.8,32.5-5.5,44-5.5,13.7-15.7,23.9-27.3,27.3l-17,5,13.1,12c14.5,13.2,26.7,28.6,36.3,45.7,5.5,9.8,8.8,18.1,10.5,25.9,1.9,9.4,2,19.5.5,33.3Z"/>
</svg>