<?xml version="1.0" encoding="UTF-8"?>
<svg id="Layer_1" xmlns="http://www.w3.org/2000/svg" version="1.1" viewBox="0 0 110 135">
  <!-- Generator: Adobe Illustrator 29.6.0, SVG Export Plug-In . SVG Version: 2.1.1 Build 207)  -->
  <path d="M77.2,83.2c-1.3-1.2-3-1.4-4-1.4-.4-1.5-1.7-5-6-5.9-2.4-.5-4.2,0-5.7.7,0-.2-.2-.3-.3-.6v-9.3c0-10.4,3.2-15.7,6-20.4,1.2-1.9,2.4-3.9,3.2-6.1,1.5-4,.5-7.9-2.6-10.3-3.2-2.5-9-2.2-12.1-.1-.2.1-.4.3-.6.4-1.1-.3-2.3-.5-3.5-.4-5,.3-9.3,4-11.4,9.8-2.1,5.5-1.3,10.6,1.9,13.4,1.5,1.4,3.4,2,5.4,2s2.7-.3,4-1c3.3-1.7,5.2-6.1,5.7-9.6.2-1.4.9-2.7,1.6-4,1.1-2,2.3-4.1,1.1-6.3-.2-.4-.4-.7-.6-1,1.5-.5,4.1-.3,5.3.7.9.8,1.9,2.2,1,4.6-.6,1.7-1.6,3.3-2.8,5.2-3,5-6.7,11.2-6.7,23v6c-1.2-.3-2.6-.4-4.3-.3-8.3.6-10.4,5.8-10.9,7.3-8.9,1-11.3,11-11.3,11.1,0,.2,0,.5.1.6.1.2.4.3.6.3h49.4c.2,0,.4,0,.5-.2.1-.1.2-.4.2-.6,0-.2-.3-5.1-3.3-7.8h0ZM57.5,39.9c-.8,1.4-1.6,2.9-1.8,4.5-.4,3.1-2.1,6.9-4.9,8.4-2.6,1.4-5.6,1-7.7-.8-2.8-2.4-3.4-6.9-1.5-11.8,1.9-5.2,5.7-8.5,10.1-8.8.2,0,.4,0,.6,0,2.1,0,4,.8,5.3,2.1,0,0,0,0,0,0,0,0,0,0,0,0,.4.4.7.9,1,1.4.8,1.5-.1,3.1-1.1,4.9h0ZM57.6,66.8c0-11.4,3.6-17.4,6.5-22.3,1.2-1.9,2.2-3.6,2.9-5.5,1.3-3.6-.6-5.6-1.5-6.3-1.8-1.4-5.3-1.7-7.3-.7-.5-.4-1-.8-1.6-1.1,2.6-1.6,7.5-1.8,10.1.2,2.6,2,3.4,5.3,2.1,8.6-.8,2.1-1.9,4-3.1,5.8-2.9,4.8-6.2,10.3-6.2,21.2v7.6c-.6-.4-1.2-.9-2.1-1.2v-6.4h0ZM31.3,90.3c.8-2.4,3.6-8.8,10.7-9.1,6-.2,8.5,3.7,8.6,3.9.2.4.7.5,1,.2.4-.2.5-.7.2-1-.1-.2-3-4.5-9.4-4.6.6-1.6,2.8-5.2,9.4-5.8,6-.5,7.9,2.7,8.4,3.5-1.5,1.2-2.2,2.6-2.3,2.6-.2.4,0,.8.3,1,.4.2.8,0,1-.3.1-.2,2.4-4.4,7.6-3.3,4.4.9,5,5.1,5,5.3,0,.4.4.7.8.7,0,0,2.1-.2,3.5,1,1.9,1.6,2.5,4.5,2.7,5.9H31.3s0,0,0,0Z"/>
</svg>