<?xml version="1.0" encoding="UTF-8"?>
<svg id="Layer_1" xmlns="http://www.w3.org/2000/svg" version="1.1" viewBox="0 0 110 135">
  <!-- Generator: Adobe Illustrator 29.6.0, SVG Export Plug-In . SVG Version: 2.1.1 Build 207)  -->
  <path d="M77.3,84.1c-1.4-1.2-3.1-1.4-4-1.4-.4-1.5-1.8-5.1-6.1-6-2.4-.5-4.3,0-5.8.7-.6-1.1-2.4-3.6-6.7-4.1,0-6.8.4-11.3.5-12.1.4-2.7,1.8-5.7,3.9-8.8.3,0,.6.1,1,.2.6,0,1.2.1,2,.1,4.1,0,11-1.2,15.3-4.6,6.3-5.1,9.3-15.9,7.6-18.1-.5-.6-1.5-1-2.9-1.2-3.8-.5-11.4.7-16.4,4.7-5.2,4.2-7.9,12.8-8.1,16.2,0,.9,0,1.4.2,1.8-1.4,2.1-2.5,4.1-3.2,6-.5-1.9-1.5-3.9-2.7-6,.1-.4.2-.9.2-1.6-.2-3.4-2.7-12.1-7.9-16.3-5-4.1-12.5-5.3-16.3-4.9-1.5.2-2.4.6-2.9,1.2-1.7,2.2,1.1,13,7.4,18.1,4.4,3.6,11.4,4.8,15.5,4.8s1.3,0,1.8-.1c.5,0,.9-.1,1.2-.2,1.9,3.2,3,6.2,2.9,8.7,0,0,0,0,0,0-.1,1.4-.4,5.7-.5,11.9-.5,0-1.1,0-1.7,0-8.4.7-10.6,5.9-11.1,7.4-9,1.1-11.4,11.1-11.4,11.2,0,.2,0,.5.1.6.1.2.4.3.6.3h50.1c.2,0,.4,0,.5-.2.1-.1.2-.4.2-.6,0-.2-.3-5.2-3.3-7.9h0ZM66.7,34.7c4.6-3.7,11.8-4.8,15.3-4.4,1.2.1,1.8.4,1.9.6,1,1.3-1.4,11.2-7.3,16-4.8,3.9-12.9,4.6-16.2,4.2-.1,0-.2,0-.2,0,5.7-7.9,14.6-14.7,20.3-17.1.4-.2.6-.6.4-1s-.6-.6-1-.4c-5.8,2.4-14.7,9.2-20.6,17.1.2-3.2,2.7-11.2,7.6-15.1h0ZM49.5,51.3c-3.3.4-11.4-.5-16.2-4.4-5.9-4.8-8.2-14.8-7.2-16.1.2-.2.8-.5,1.9-.6.4,0,.9,0,1.4,0,3.7,0,9.8,1.3,13.9,4.6,4.6,3.8,7,11.2,7.4,14.7-4.5-6.5-11.9-13.2-20.1-16.8-.4-.2-.8,0-1,.4-.2.4,0,.8.4,1,7.8,3.4,15.7,10.4,20.1,17.1-.1,0-.3,0-.5,0h0ZM30.8,91.3c.8-2.5,3.6-9,10.8-9.2,6.1-.2,8.7,3.8,8.8,3.9.2.4.7.5,1,.2.4-.2.5-.7.2-1-.1-.2-3-4.6-9.6-4.6.6-1.6,2.8-5.3,9.6-5.9,6.1-.5,8.1,2.7,8.5,3.5-1.5,1.2-2.3,2.6-2.3,2.6-.2.4,0,.8.3,1,.4.2.8,0,1-.3.1-.2,2.4-4.5,7.7-3.4,4.5.9,5,5.2,5.1,5.4,0,.4.4.7.8.7,0,0,2.1-.2,3.6,1.1,1.9,1.7,2.5,4.6,2.7,6H30.8s0,0,0,0Z"/>
</svg>